<svg xmlns="http://www.w3.org/2000/svg" xmlns:xlink="http://www.w3.org/1999/xlink" width="128" zoomAndPan="magnify" viewBox="0 0 96 95.999999" height="128" preserveAspectRatio="xMidYMid meet" version="1.0"><defs><g/><clipPath id="63ae136080"><path d="M 6 0 L 89.90625 0 L 89.90625 96 L 6 96 Z M 6 0 " clip-rule="nonzero"/></clipPath><clipPath id="fd329cd073"><path d="M 5.90625 0 L 89.90625 0 L 89.90625 96 L 5.90625 96 Z M 5.90625 0 " clip-rule="nonzero"/></clipPath></defs><g clip-path="url(#63ae136080)"><path fill="#008000" d="M 47.996094 95.40625 C 89.476562 71.703125 89.476562 71.703125 89.476562 12.445312 C 71.699219 12.445312 65.773438 12.445312 47.996094 0.59375 M 47.996094 95.40625 C 6.515625 71.703125 6.515625 71.703125 6.515625 12.445312 C 24.292969 12.445312 30.21875 12.445312 47.996094 0.59375 " fill-opacity="1" fill-rule="nonzero"/></g><g clip-path="url(#fd329cd073)"><path stroke-linecap="round" transform="matrix(0.740729, 0, 0, 0.740729, -135.334929, -81.072102)" fill="none" stroke-linejoin="round" d="M 247.500715 238.249466 C 303.500216 206.249751 303.500216 206.249751 303.500216 126.250465 C 279.50043 126.250465 271.500501 126.250465 247.500715 110.250608 M 247.500715 238.249466 C 191.501215 206.249751 191.501215 206.249751 191.501215 126.250465 C 215.501001 126.250465 223.500929 126.250465 247.500715 110.250608 " stroke="#ffffff" stroke-width="1.602" stroke-opacity="1" stroke-miterlimit="4"/></g><g fill="#ffffff" fill-opacity="1"><g transform="translate(26.062917, 55.124999)"><g><path d="M 7.6875 -24.40625 L 7.6875 -9.25 C 7.6875 -7.1875 8.09375 -5.707031 8.90625 -4.8125 C 9.71875 -3.925781 11.101562 -3.484375 13.0625 -3.484375 C 14.6875 -3.484375 16 -3.894531 17 -4.71875 C 18.007812 -5.539062 18.515625 -7.015625 18.515625 -9.140625 L 18.515625 -24.40625 L 23.640625 -24.40625 L 23.640625 -9 C 23.640625 -6.070312 22.648438 -3.757812 20.671875 -2.0625 C 18.691406 -0.375 16.15625 0.46875 13.0625 0.46875 C 9.707031 0.46875 7.097656 -0.328125 5.234375 -1.921875 C 3.367188 -3.523438 2.4375 -5.832031 2.4375 -8.84375 L 2.4375 -24.40625 Z M 7.6875 -24.40625 "/></g></g></g><g fill="#ffffff" fill-opacity="1"><g transform="translate(43.587471, 55.124999)"><g><path d="M 24.203125 -16.96875 L 18.765625 -16.96875 C 18.710938 -18.40625 18.269531 -19.488281 17.4375 -20.21875 C 16.601562 -20.957031 15.453125 -21.328125 13.984375 -21.328125 C 11.703125 -21.328125 9.941406 -20.515625 8.703125 -18.890625 C 7.460938 -17.265625 6.84375 -14.972656 6.84375 -12.015625 C 6.84375 -9.171875 7.476562 -7.015625 8.75 -5.546875 C 10.03125 -4.085938 11.910156 -3.359375 14.390625 -3.359375 C 15.242188 -3.359375 16.03125 -3.390625 16.75 -3.453125 C 17.476562 -3.523438 18.101562 -3.648438 18.625 -3.828125 L 18.625 -8.96875 L 13.875 -8.96875 L 13.875 -13.03125 L 23.875 -13.03125 L 23.875 -0.8125 C 22.445312 -0.3125 21.015625 0.0351562 19.578125 0.234375 C 18.148438 0.441406 16.601562 0.546875 14.9375 0.546875 C 10.082031 0.546875 6.59375 -0.554688 4.46875 -2.765625 C 2.34375 -4.984375 1.28125 -8.007812 1.28125 -11.84375 C 1.28125 -15.976562 2.445312 -19.226562 4.78125 -21.59375 C 7.125 -23.96875 10.238281 -25.15625 14.125 -25.15625 C 17.101562 -25.15625 19.523438 -24.445312 21.390625 -23.03125 C 23.265625 -21.625 24.203125 -19.601562 24.203125 -16.96875 Z M 24.203125 -16.96875 "/></g></g></g></svg>